<svg width="56" height="56" viewBox="0 0 56 56" fill="none" xmlns="http://www.w3.org/2000/svg">
<rect width="56" height="56" rx="8" fill="#F8F9FA"/>
<path d="M12 12.25C12 11.1228 12.4478 10.0418 13.2448 9.2448C14.0418 8.44777 15.1228 8 16.25 8H31.75C32.8772 8 33.9582 8.44777 34.7552 9.2448C35.5522 10.0418 36 11.1228 36 12.25V23H39.75C40.8772 23 41.9582 23.4478 42.7552 24.2448C43.5522 25.0418 44 26.1228 44 27.25V46.75C44 47.44 43.44 48 42.75 48H38V41.25C38 40.6533 37.7629 40.081 37.341 39.659C36.919 39.2371 36.3467 39 35.75 39H20.25C19.6533 39 19.081 39.2371 18.659 39.659C18.2371 40.081 18 40.6533 18 41.25V48H13.25C12.56 48 12 47.44 12 46.75V12.25ZM20.5 48H26.75V41.5H20.5V48ZM29.25 48H35.5V41.5H29.25V48ZM22 18C22 17.4696 21.7893 16.9609 21.4142 16.5858C21.0391 16.2107 20.5304 16 20 16C19.4696 16 18.9609 16.2107 18.5858 16.5858C18.2107 16.9609 18 17.4696 18 18C18 18.5304 18.2107 19.0391 18.5858 19.4142C18.9609 19.7893 19.4696 20 20 20C20.5304 20 21.0391 19.7893 21.4142 19.4142C21.7893 19.0391 22 18.5304 22 18ZM20 27C20.5304 27 21.0391 26.7893 21.4142 26.4142C21.7893 26.0391 22 25.5304 22 25C22 24.4696 21.7893 23.9609 21.4142 23.5858C21.0391 23.2107 20.5304 23 20 23C19.4696 23 18.9609 23.2107 18.5858 23.5858C18.2107 23.9609 18 24.4696 18 25C18 25.5304 18.2107 26.0391 18.5858 26.4142C18.9609 26.7893 19.4696 27 20 27ZM22 32C22 31.4696 21.7893 30.9609 21.4142 30.5858C21.0391 30.2107 20.5304 30 20 30C19.4696 30 18.9609 30.2107 18.5858 30.5858C18.2107 30.9609 18 31.4696 18 32C18 32.5304 18.2107 33.0391 18.5858 33.4142C18.9609 33.7893 19.4696 34 20 34C20.5304 34 21.0391 33.7893 21.4142 33.4142C21.7893 33.0391 22 32.5304 22 32ZM28 20C28.5304 20 29.0391 19.7893 29.4142 19.4142C29.7893 19.0391 30 18.5304 30 18C30 17.4696 29.7893 16.9609 29.4142 16.5858C29.0391 16.2107 28.5304 16 28 16C27.4696 16 26.9609 16.2107 26.5858 16.5858C26.2107 16.9609 26 17.4696 26 18C26 18.5304 26.2107 19.0391 26.5858 19.4142C26.9609 19.7893 27.4696 20 28 20ZM30 25C30 24.4696 29.7893 23.9609 29.4142 23.5858C29.0391 23.2107 28.5304 23 28 23C27.4696 23 26.9609 23.2107 26.5858 23.5858C26.2107 23.9609 26 24.4696 26 25C26 25.5304 26.2107 26.0391 26.5858 26.4142C26.9609 26.7893 27.4696 27 28 27C28.5304 27 29.0391 26.7893 29.4142 26.4142C29.7893 26.0391 30 25.5304 30 25ZM28 34C28.5304 34 29.0391 33.7893 29.4142 33.4142C29.7893 33.0391 30 32.5304 30 32C30 31.4696 29.7893 30.9609 29.4142 30.5858C29.0391 30.2107 28.5304 30 28 30C27.4696 30 26.9609 30.2107 26.5858 30.5858C26.2107 30.9609 26 31.4696 26 32C26 32.5304 26.2107 33.0391 26.5858 33.4142C26.9609 33.7893 27.4696 34 28 34ZM38 32C38 31.4696 37.7893 30.9609 37.4142 30.5858C37.0391 30.2107 36.5304 30 36 30C35.4696 30 34.9609 30.2107 34.5858 30.5858C34.2107 30.9609 34 31.4696 34 32C34 32.5304 34.2107 33.0391 34.5858 33.4142C34.9609 33.7893 35.4696 34 36 34C36.5304 34 37.0391 33.7893 37.4142 33.4142C37.7893 33.0391 38 32.5304 38 32Z" fill="#0500FF"/>
</svg>
